<svg xmlns="http://www.w3.org/2000/svg" xmlns:xlink="http://www.w3.org/1999/xlink" width="500" zoomAndPan="magnify" viewBox="0 0 375 374.999991" height="500" preserveAspectRatio="xMidYMid meet" version="1.0"><defs><clipPath id="2d80bc745a"><path d="M 37.261719 37.5 L 337.261719 37.5 L 337.261719 337.5 L 37.261719 337.5 Z M 37.261719 37.5 " clip-rule="nonzero"/></clipPath><clipPath id="7b459ea67a"><path d="M 254.332031 182.074219 L 298.625 182.074219 L 298.625 205 L 254.332031 205 Z M 254.332031 182.074219 " clip-rule="nonzero"/></clipPath><clipPath id="c85313a2f9"><path d="M 234.40625 213 L 270.9375 213 L 270.9375 254.519531 L 234.40625 254.519531 Z M 234.40625 213 " clip-rule="nonzero"/></clipPath><clipPath id="1ab491281c"><path d="M 254 182 L 298.839844 182 L 298.839844 203 L 254 203 Z M 254 182 " clip-rule="nonzero"/></clipPath><clipPath id="817b2e02ca"><path d="M 76.089844 182 L 121 182 L 121 205 L 76.089844 205 Z M 76.089844 182 " clip-rule="nonzero"/></clipPath><clipPath id="9bf89964e7"><path d="M 104.066406 213 L 140.597656 213 L 140.597656 254.519531 L 104.066406 254.519531 Z M 104.066406 213 " clip-rule="nonzero"/></clipPath></defs><g clip-path="url(#2d80bc745a)"><path fill="#ff4d1d" d="M 337.496094 187.617188 C 337.496094 190.074219 337.4375 192.527344 337.316406 194.984375 C 337.195312 197.4375 337.015625 199.886719 336.773438 202.332031 C 336.53125 204.777344 336.230469 207.214844 335.871094 209.644531 C 335.511719 212.074219 335.089844 214.492188 334.613281 216.902344 C 334.132812 219.3125 333.59375 221.710938 332.996094 224.09375 C 332.402344 226.476562 331.746094 228.84375 331.03125 231.195312 C 330.320312 233.542969 329.550781 235.875 328.722656 238.191406 C 327.894531 240.503906 327.007812 242.792969 326.070312 245.066406 C 325.128906 247.335938 324.132812 249.578125 323.082031 251.800781 C 322.035156 254.019531 320.929688 256.214844 319.769531 258.382812 C 318.613281 260.546875 317.402344 262.6875 316.140625 264.792969 C 314.875 266.898438 313.5625 268.976562 312.195312 271.019531 C 310.832031 273.058594 309.417969 275.070312 307.953125 277.042969 C 306.492188 279.015625 304.980469 280.953125 303.421875 282.851562 C 301.863281 284.75 300.257812 286.609375 298.609375 288.429688 C 296.957031 290.25 295.265625 292.027344 293.527344 293.765625 C 291.789062 295.503906 290.011719 297.195312 288.191406 298.847656 C 286.371094 300.496094 284.511719 302.101562 282.613281 303.660156 C 280.714844 305.21875 278.777344 306.730469 276.804688 308.191406 C 274.832031 309.65625 272.824219 311.070312 270.78125 312.433594 C 268.738281 313.800781 266.664062 315.113281 264.554688 316.375 C 262.449219 317.640625 260.3125 318.851562 258.144531 320.007812 C 255.976562 321.167969 253.785156 322.269531 251.5625 323.320312 C 249.339844 324.371094 247.097656 325.367188 244.828125 326.308594 C 242.558594 327.246094 240.265625 328.132812 237.953125 328.960938 C 235.640625 329.785156 233.308594 330.558594 230.957031 331.269531 C 228.605469 331.984375 226.238281 332.636719 223.855469 333.234375 C 221.472656 333.832031 219.074219 334.371094 216.664062 334.851562 C 214.257812 335.328125 211.835938 335.75 209.40625 336.109375 C 206.976562 336.46875 204.539062 336.769531 202.09375 337.011719 C 199.648438 337.253906 197.199219 337.433594 194.746094 337.554688 C 192.292969 337.675781 189.835938 337.734375 187.378906 337.734375 C 184.921875 337.734375 182.46875 337.675781 180.011719 337.554688 C 177.558594 337.433594 175.109375 337.253906 172.664062 337.011719 C 170.21875 336.769531 167.78125 336.46875 165.351562 336.109375 C 162.921875 335.75 160.503906 335.328125 158.09375 334.851562 C 155.683594 334.371094 153.285156 333.832031 150.902344 333.234375 C 148.519531 332.636719 146.152344 331.984375 143.800781 331.269531 C 141.453125 330.558594 139.121094 329.785156 136.804688 328.960938 C 134.492188 328.132812 132.203125 327.246094 129.933594 326.308594 C 127.664062 325.367188 125.417969 324.371094 123.195312 323.320312 C 120.976562 322.269531 118.78125 321.167969 116.613281 320.007812 C 114.449219 318.851562 112.3125 317.640625 110.203125 316.375 C 108.097656 315.113281 106.019531 313.800781 103.980469 312.433594 C 101.9375 311.070312 99.929688 309.65625 97.953125 308.191406 C 95.980469 306.730469 94.046875 305.21875 92.144531 303.660156 C 90.246094 302.101562 88.386719 300.496094 86.566406 298.847656 C 84.746094 297.195312 82.96875 295.503906 81.230469 293.765625 C 79.492188 292.027344 77.800781 290.25 76.148438 288.429688 C 74.5 286.609375 72.894531 284.75 71.335938 282.851562 C 69.777344 280.953125 68.269531 279.015625 66.804688 277.042969 C 65.339844 275.070312 63.925781 273.058594 62.5625 271.019531 C 61.195312 268.976562 59.882812 266.898438 58.621094 264.792969 C 57.355469 262.6875 56.144531 260.546875 54.988281 258.382812 C 53.828125 256.214844 52.726562 254.019531 51.675781 251.800781 C 50.625 249.578125 49.628906 247.335938 48.6875 245.066406 C 47.75 242.792969 46.863281 240.503906 46.039062 238.191406 C 45.210938 235.875 44.4375 233.542969 43.726562 231.195312 C 43.011719 228.84375 42.359375 226.476562 41.761719 224.09375 C 41.164062 221.710938 40.625 219.3125 40.148438 216.902344 C 39.667969 214.492188 39.246094 212.074219 38.886719 209.644531 C 38.527344 207.214844 38.226562 204.777344 37.984375 202.332031 C 37.746094 199.886719 37.5625 197.4375 37.441406 194.984375 C 37.324219 192.527344 37.261719 190.074219 37.261719 187.617188 C 37.261719 185.160156 37.324219 182.707031 37.441406 180.25 C 37.5625 177.796875 37.746094 175.347656 37.984375 172.902344 C 38.226562 170.457031 38.527344 168.019531 38.886719 165.589844 C 39.246094 163.160156 39.667969 160.742188 40.148438 158.332031 C 40.625 155.921875 41.164062 153.523438 41.761719 151.140625 C 42.359375 148.757812 43.011719 146.390625 43.726562 144.039062 C 44.4375 141.691406 45.210938 139.355469 46.039062 137.042969 C 46.863281 134.730469 47.75 132.441406 48.6875 130.167969 C 49.628906 127.898438 50.625 125.65625 51.675781 123.433594 C 52.726562 121.214844 53.828125 119.019531 54.988281 116.851562 C 56.144531 114.6875 57.355469 112.546875 58.621094 110.441406 C 59.882812 108.335938 61.195312 106.257812 62.5625 104.214844 C 63.925781 102.171875 65.339844 100.164062 66.804688 98.191406 C 68.269531 96.21875 69.777344 94.28125 71.335938 92.382812 C 72.894531 90.484375 74.5 88.625 76.148438 86.804688 C 77.800781 84.984375 79.492188 83.207031 81.230469 81.46875 C 82.96875 79.730469 84.746094 78.039062 86.566406 76.386719 C 88.386719 74.738281 90.246094 73.132812 92.144531 71.574219 C 94.046875 70.015625 95.980469 68.503906 97.953125 67.042969 C 99.929688 65.578125 101.9375 64.164062 103.980469 62.800781 C 106.019531 61.433594 108.097656 60.121094 110.203125 58.855469 C 112.3125 57.59375 114.449219 56.382812 116.613281 55.226562 C 118.78125 54.066406 120.976562 52.964844 123.195312 51.914062 C 125.417969 50.863281 127.664062 49.867188 129.933594 48.925781 C 132.203125 47.988281 134.492188 47.101562 136.804688 46.273438 C 139.121094 45.449219 141.453125 44.675781 143.800781 43.964844 C 146.152344 43.25 148.519531 42.597656 150.902344 42 C 153.285156 41.402344 155.683594 40.863281 158.09375 40.382812 C 160.503906 39.90625 162.921875 39.484375 165.351562 39.125 C 167.78125 38.765625 170.21875 38.464844 172.664062 38.222656 C 175.109375 37.980469 177.558594 37.800781 180.011719 37.679688 C 182.46875 37.558594 184.921875 37.5 187.378906 37.5 C 189.835938 37.5 192.292969 37.558594 194.746094 37.679688 C 197.199219 37.800781 199.648438 37.980469 202.09375 38.222656 C 204.539062 38.464844 206.976562 38.765625 209.40625 39.125 C 211.835938 39.484375 214.257812 39.90625 216.664062 40.382812 C 219.074219 40.863281 221.472656 41.402344 223.855469 42 C 226.238281 42.597656 228.605469 43.25 230.957031 43.964844 C 233.308594 44.675781 235.640625 45.449219 237.953125 46.273438 C 240.265625 47.101562 242.558594 47.988281 244.828125 48.925781 C 247.097656 49.867188 249.339844 50.863281 251.5625 51.914062 C 253.785156 52.964844 255.976562 54.066406 258.144531 55.226562 C 260.3125 56.382812 262.449219 57.59375 264.554688 58.855469 C 266.664062 60.121094 268.738281 61.433594 270.78125 62.800781 C 272.824219 64.164062 274.832031 65.578125 276.804688 67.042969 C 278.777344 68.503906 280.714844 70.015625 282.613281 71.574219 C 284.511719 73.132812 286.371094 74.738281 288.191406 76.386719 C 290.011719 78.039062 291.789062 79.730469 293.527344 81.46875 C 295.265625 83.207031 296.957031 84.984375 298.609375 86.804688 C 300.257812 88.625 301.863281 90.484375 303.421875 92.382812 C 304.980469 94.28125 306.492188 96.21875 307.953125 98.191406 C 309.417969 100.164062 310.832031 102.171875 312.195312 104.214844 C 313.5625 106.257812 314.875 108.335938 316.140625 110.441406 C 317.402344 112.546875 318.613281 114.6875 319.769531 116.851562 C 320.929688 119.019531 322.035156 121.214844 323.082031 123.433594 C 324.132812 125.65625 325.128906 127.898438 326.070312 130.167969 C 327.007812 132.441406 327.894531 134.730469 328.722656 137.042969 C 329.550781 139.355469 330.320312 141.691406 331.03125 144.039062 C 331.746094 146.390625 332.402344 148.757812 332.996094 151.140625 C 333.59375 153.523438 334.132812 155.921875 334.613281 158.332031 C 335.089844 160.742188 335.511719 163.160156 335.871094 165.589844 C 336.230469 168.019531 336.53125 170.457031 336.773438 172.902344 C 337.015625 175.347656 337.195312 177.796875 337.316406 180.25 C 337.4375 182.707031 337.496094 185.160156 337.496094 187.617188 Z M 337.496094 187.617188 " fill-opacity="1" fill-rule="nonzero"/></g><g clip-path="url(#7b459ea67a)"><path fill="#ffffff" d="M 255.257812 198.199219 C 256.238281 197.050781 269.945312 194.988281 274.601562 193.984375 C 280.46875 192.722656 284.640625 198.210938 289.105469 201.203125 C 290.808594 202.339844 292.554688 203.476562 294.425781 204.382812 C 295.363281 204.839844 296.964844 205.207031 297.726562 204.820312 C 299.222656 204.058594 298.492188 202.621094 298.082031 201.425781 C 294.570312 191.109375 281.578125 182.941406 269.039062 182.71875 C 265.917969 182.660156 263.332031 182.71875 260.207031 182.792969 C 259.304688 182.8125 254.90625 182.683594 254.351562 182.355469 L 255.257812 198.199219 " fill-opacity="1" fill-rule="nonzero"/></g><g clip-path="url(#c85313a2f9)"><path fill="#ffffff" d="M 234.730469 228.15625 C 236.257812 227.664062 249.8125 233.40625 254.285156 234.824219 C 259.921875 236.609375 260.71875 242.574219 262.519531 247.269531 C 263.210938 249.0625 263.9375 250.863281 264.90625 252.539062 C 265.398438 253.386719 266.488281 254.46875 267.363281 254.515625 C 269.074219 254.601562 269.375 253.03125 269.792969 251.824219 C 273.386719 241.40625 267.003906 227.507812 256.789062 221.222656 C 254.246094 219.660156 246.945312 213.988281 246.691406 213.445312 L 234.730469 228.15625 " fill-opacity="1" fill-rule="nonzero"/></g><g clip-path="url(#1ab491281c)"><path fill="#ffffff" d="M 297.515625 202.390625 C 296.757812 202.753906 290.503906 198.320312 288.8125 197.257812 C 284.382812 194.460938 280.246094 189.339844 274.425781 190.519531 C 269.808594 191.457031 256.214844 193.378906 255.242188 194.453125 L 254.769531 182.035156 C 255.433594 182.375 259.332031 182.8125 260.207031 182.792969 C 263.332031 182.71875 269.21875 182.445312 272.34375 182.5 C 284.882812 182.722656 294.570312 191.109375 298.082031 201.425781 C 298.125 201.546875 298.171875 201.675781 298.214844 201.800781 C 298.078125 202.023438 297.863281 202.226562 297.515625 202.390625 " fill-opacity="1" fill-rule="nonzero"/></g><path fill="#ffffff" d="M 248.382812 213.613281 C 249.699219 212.835938 264.316406 215.390625 269.191406 215.929688 C 275.335938 216.613281 277.175781 223.042969 280.621094 227.3125 C 281.9375 228.945312 283.292969 230.578125 284.84375 232.046875 C 285.625 232.777344 287.078125 233.640625 287.945312 233.515625 C 289.652344 233.269531 289.378906 231.671875 289.351562 230.40625 C 289.113281 219.476562 279.464844 207.667969 267.242188 203.4375 C 264.199219 202.382812 261.101562 201.484375 258.019531 200.554688 C 257.128906 200.285156 252.855469 198.753906 252.414062 198.261719 L 248.382812 213.613281 " fill-opacity="1" fill-rule="nonzero"/><path fill="#ffffff" d="M 288.496094 231.140625 C 287.640625 231.242188 283.824219 224.921875 282.496094 223.363281 C 279.023438 219.289062 275.457031 212.769531 269.386719 212.023438 C 264.566406 211.433594 250.707031 208.246094 249.421875 208.953125 L 252.925781 198.09375 C 253.472656 198.628906 257.15625 200.292969 258.019531 200.554688 C 261.101562 201.484375 264.199219 202.382812 267.242188 203.4375 C 279.464844 207.667969 289.113281 219.476562 289.351562 230.402344 C 289.355469 230.535156 289.363281 230.667969 289.367188 230.804688 C 289.160156 230.972656 288.886719 231.09375 288.496094 231.140625 " fill-opacity="1" fill-rule="nonzero"/><path fill="#ffffff" d="M 267.402344 250.234375 C 266.550781 248.566406 265.589844 246.183594 264.921875 244.445312 C 263.167969 239.886719 261.855469 233.296875 256.652344 230.863281 C 252.425781 228.882812 240.664062 222.984375 237.515625 222.59375 L 241.910156 219.855469 L 247.070312 213.992188 C 247.808594 214.421875 254.046875 219.328125 256.589844 220.894531 C 266.800781 227.175781 273.386719 241.40625 269.792969 251.824219 C 269.792969 251.824219 269.792969 251.828125 269.792969 251.828125 C 269.535156 251.953125 268.746094 252.871094 267.402344 250.234375 " fill-opacity="1" fill-rule="nonzero"/><g clip-path="url(#817b2e02ca)"><path fill="#ffffff" d="M 120.035156 198.199219 C 119.054688 197.050781 105.347656 194.988281 100.695312 193.984375 C 94.824219 192.722656 90.65625 198.210938 86.191406 201.203125 C 84.488281 202.339844 82.742188 203.476562 80.871094 204.382812 C 79.929688 204.839844 78.335938 205.207031 77.570312 204.820312 C 76.074219 204.058594 76.808594 202.621094 77.210938 201.425781 C 80.726562 191.109375 93.714844 182.941406 106.257812 182.71875 C 109.375 182.660156 111.96875 182.71875 115.085938 182.792969 C 115.992188 182.8125 120.390625 182.683594 120.945312 182.355469 L 120.035156 198.199219 " fill-opacity="1" fill-rule="nonzero"/></g><g clip-path="url(#9bf89964e7)"><path fill="#ffffff" d="M 140.566406 228.15625 C 139.035156 227.664062 125.484375 233.40625 121.011719 234.824219 C 115.371094 236.609375 114.578125 242.574219 112.773438 247.269531 C 112.085938 249.0625 111.359375 250.863281 110.386719 252.539062 C 109.898438 253.386719 108.808594 254.46875 107.9375 254.515625 C 106.222656 254.601562 105.917969 253.03125 105.503906 251.824219 C 101.90625 241.40625 108.292969 227.507812 118.503906 221.222656 C 121.046875 219.660156 128.355469 213.988281 128.605469 213.445312 L 140.566406 228.15625 " fill-opacity="1" fill-rule="nonzero"/></g><path fill="#ffffff" d="M 77.78125 202.390625 C 78.535156 202.753906 84.792969 198.320312 86.480469 197.257812 C 90.910156 194.460938 95.050781 189.339844 100.871094 190.519531 C 105.488281 191.457031 119.082031 193.378906 120.050781 194.453125 L 120.527344 182.035156 C 119.859375 182.375 115.960938 182.8125 115.085938 182.792969 C 111.96875 182.71875 106.074219 182.445312 102.957031 182.5 C 90.414062 182.722656 80.726562 191.109375 77.210938 201.425781 C 77.171875 201.546875 77.125 201.675781 77.078125 201.800781 C 77.21875 202.023438 77.433594 202.226562 77.78125 202.390625 " fill-opacity="1" fill-rule="nonzero"/><path fill="#ffffff" d="M 126.917969 213.613281 C 125.597656 212.835938 110.976562 215.390625 106.105469 215.929688 C 99.957031 216.613281 98.125 223.042969 94.675781 227.3125 C 93.359375 228.945312 92 230.578125 90.449219 232.046875 C 89.667969 232.777344 88.21875 233.640625 87.351562 233.515625 C 85.644531 233.269531 85.917969 231.671875 85.941406 230.40625 C 86.183594 219.476562 95.832031 207.667969 108.054688 203.4375 C 111.09375 202.382812 114.191406 201.484375 117.277344 200.554688 C 118.167969 200.285156 122.4375 198.753906 122.878906 198.261719 L 126.917969 213.613281 " fill-opacity="1" fill-rule="nonzero"/><path fill="#ffffff" d="M 86.800781 231.140625 C 87.65625 231.242188 91.476562 224.921875 92.796875 223.363281 C 96.273438 219.289062 99.84375 212.769531 105.914062 212.023438 C 110.730469 211.433594 124.589844 208.246094 125.871094 208.953125 L 122.371094 198.09375 C 121.824219 198.628906 118.136719 200.292969 117.277344 200.554688 C 114.191406 201.484375 111.09375 202.382812 108.054688 203.4375 C 95.832031 207.667969 86.183594 219.476562 85.941406 230.402344 C 85.941406 230.535156 85.9375 230.667969 85.929688 230.804688 C 86.132812 230.972656 86.410156 231.09375 86.800781 231.140625 " fill-opacity="1" fill-rule="nonzero"/><path fill="#ffffff" d="M 107.894531 250.234375 C 108.742188 248.566406 109.707031 246.183594 110.375 244.445312 C 112.125 239.886719 113.441406 233.296875 118.644531 230.863281 C 122.871094 228.882812 134.632812 222.984375 137.78125 222.59375 L 133.386719 219.855469 L 128.222656 213.992188 C 127.492188 214.421875 121.25 219.328125 118.707031 220.894531 C 108.496094 227.175781 101.90625 241.40625 105.503906 251.824219 C 105.503906 251.824219 105.503906 251.828125 105.503906 251.828125 C 105.761719 251.953125 106.550781 252.871094 107.894531 250.234375 " fill-opacity="1" fill-rule="nonzero"/><path fill="#ffffff" d="M 109.449219 149.878906 C 106.375 160.921875 110.199219 169.523438 121.621094 169.457031 C 121.621094 169.457031 120.394531 176.757812 119.738281 176.804688 C 102.75 178.042969 90.183594 163.9375 93.632812 142.03125 L 109.449219 149.878906 " fill-opacity="1" fill-rule="nonzero"/><path fill="#ffffff" d="M 120.648438 173.46875 C 106.8125 174.738281 95.289062 164.945312 96.90625 143.453125 L 107.460938 148.960938 C 104.761719 160.734375 108.992188 170.558594 121.574219 170.519531 L 120.648438 173.46875 " fill-opacity="1" fill-rule="nonzero"/><path fill="#ffffff" d="M 141.542969 121.710938 C 141.09375 128.9375 138.476562 135.867188 133.808594 141.582031 C 128.46875 148.15625 117.925781 150.894531 109.792969 149.832031 C 95.738281 147.996094 82.378906 133.769531 81.679688 119.617188 C 81.125 108.351562 87.167969 97.085938 96.171875 90.464844 C 96.175781 90.453125 96.191406 90.457031 96.191406 90.457031 C 97.570312 89.429688 99.023438 88.527344 100.542969 87.746094 C 116.359375 79.566406 134.011719 83.996094 149.558594 90.171875 C 150.484375 90.53125 151.636719 91.242188 152.285156 92.105469 C 152.65625 92.589844 152.863281 93.113281 152.761719 93.640625 C 152.542969 94.953125 150.699219 95.679688 149.457031 96.007812 C 142.480469 98.191406 135.535156 100.878906 129.789062 105.542969 C 126.070312 108.6875 123.371094 111.902344 121.628906 114.785156 C 116.050781 123.914062 120.105469 129.453125 132.222656 117.097656 C 133.011719 116.277344 137.070312 109.839844 138.972656 110.167969 C 140.78125 110.480469 140.980469 112.484375 141.207031 113.988281 C 141.597656 116.582031 141.710938 119.167969 141.542969 121.710938 " fill-opacity="1" fill-rule="nonzero"/><path fill="#ffffff" d="M 129.621094 100.546875 C 125.953125 102.871094 122.269531 105.671875 119.730469 109.273438 C 116.90625 113.28125 116.617188 117.574219 118.824219 121.941406 C 119.027344 122.34375 119.273438 122.722656 119.472656 123.128906 C 120.621094 125.472656 124.980469 124.480469 132.222656 117.097656 C 133.011719 116.277344 137.070312 109.839844 138.972656 110.167969 C 140.78125 110.480469 140.980469 112.484375 141.207031 113.988281 C 141.597656 116.582031 141.710938 119.167969 141.542969 121.710938 C 140.464844 125.660156 138.496094 129.359375 135.675781 132.574219 C 130.8125 138.125 121.023438 140.300781 113.402344 139.238281 C 100.242188 137.378906 87.5 124.875 86.589844 112.675781 C 85.953125 104.347656 89.839844 96.128906 96.191406 90.457031 C 97.570312 89.429688 99.023438 88.527344 100.542969 87.746094 C 116.359375 79.566406 134.011719 83.996094 149.558594 90.171875 C 150.484375 90.53125 151.636719 91.242188 152.285156 92.105469 C 151.789062 92.921875 150.390625 93.394531 149.433594 93.617188 C 143.804688 94.914062 138.007812 96.078125 132.832031 98.71875 C 131.734375 99.277344 130.664062 99.890625 129.621094 100.546875 " fill-opacity="1" fill-rule="nonzero"/><path fill="#ffffff" d="M 265.84375 149.878906 C 268.917969 160.921875 265.09375 169.523438 253.671875 169.457031 C 253.671875 169.457031 254.898438 176.757812 255.558594 176.804688 C 272.542969 178.042969 285.109375 163.9375 281.664062 142.03125 L 265.84375 149.878906 " fill-opacity="1" fill-rule="nonzero"/><path fill="#ffffff" d="M 254.648438 173.46875 C 268.480469 174.738281 280.007812 164.945312 278.386719 143.453125 L 267.835938 148.960938 C 270.535156 160.734375 266.304688 170.558594 253.722656 170.519531 L 254.648438 173.46875 " fill-opacity="1" fill-rule="nonzero"/><path fill="#ffffff" d="M 233.753906 121.710938 C 234.199219 128.9375 236.820312 135.867188 241.488281 141.582031 C 246.824219 148.15625 257.371094 150.894531 265.5 149.832031 C 279.558594 147.996094 292.917969 133.769531 293.617188 119.617188 C 294.171875 108.351562 288.128906 97.085938 279.125 90.464844 C 279.121094 90.453125 279.105469 90.457031 279.105469 90.457031 C 277.726562 89.429688 276.269531 88.527344 274.757812 87.746094 C 258.9375 79.566406 241.285156 83.996094 225.734375 90.171875 C 224.816406 90.53125 223.660156 91.242188 223.015625 92.105469 C 222.640625 92.589844 222.429688 93.113281 222.53125 93.640625 C 222.753906 94.953125 224.597656 95.679688 225.835938 96.007812 C 232.820312 98.191406 239.761719 100.878906 245.507812 105.542969 C 249.222656 108.6875 251.929688 111.902344 253.667969 114.785156 C 259.246094 123.914062 255.1875 129.453125 243.074219 117.097656 C 242.285156 116.277344 238.226562 109.839844 236.324219 110.167969 C 234.515625 110.480469 234.316406 112.484375 234.085938 113.988281 C 233.699219 116.582031 233.582031 119.167969 233.753906 121.710938 " fill-opacity="1" fill-rule="nonzero"/><path fill="#ffffff" d="M 247.542969 100.863281 C 251.507812 103.507812 254.898438 105.984375 256.824219 110.410156 C 257.769531 112.574219 258.425781 115.164062 258.199219 117.539062 C 258.019531 119.410156 256.664062 122.070312 255.617188 123.472656 C 254.207031 125.347656 249.929688 124.089844 243.074219 117.097656 C 242.285156 116.277344 238.226562 109.839844 236.324219 110.167969 C 234.515625 110.480469 234.316406 112.484375 234.085938 113.988281 C 233.699219 116.582031 233.582031 119.167969 233.753906 121.710938 C 234.832031 125.660156 236.800781 129.359375 239.617188 132.574219 C 244.484375 138.125 254.273438 140.300781 261.894531 139.238281 C 275.054688 137.378906 287.796875 124.875 288.707031 112.675781 C 289.34375 104.347656 285.453125 96.128906 279.105469 90.457031 C 277.726562 89.429688 276.269531 88.527344 274.757812 87.746094 C 258.9375 79.566406 241.285156 83.996094 225.734375 90.171875 C 224.816406 90.53125 223.660156 91.242188 223.015625 92.105469 C 223.503906 92.921875 224.90625 93.394531 225.867188 93.617188 C 233.285156 95.328125 241.449219 96.789062 247.542969 100.863281 " fill-opacity="1" fill-rule="nonzero"/><path fill="#ffffff" d="M 257.246094 184.1875 C 257.246094 211.183594 238.691406 242.550781 187.648438 242.550781 C 136.605469 242.550781 118.046875 211.183594 118.046875 184.1875 C 118.046875 157.191406 149.210938 144.789062 187.648438 144.789062 C 226.085938 144.789062 257.246094 157.191406 257.246094 184.1875 " fill-opacity="1" fill-rule="nonzero"/><path fill="#ffffff" d="M 229.136719 151.023438 C 242.789062 156.75 252.832031 166.101562 252.832031 179.433594 C 252.832031 203.648438 234.4375 224.863281 187.648438 224.863281 C 140.859375 224.863281 122.464844 203.648438 122.464844 179.433594 C 122.464844 166.101562 132.507812 156.75 146.15625 151.023438 C 129.101562 157.210938 118.046875 168.113281 118.046875 184.1875 C 118.046875 211.183594 136.605469 242.550781 187.648438 242.550781 C 238.691406 242.550781 257.246094 211.183594 257.246094 184.1875 C 257.246094 168.113281 246.195312 157.210938 229.136719 151.023438 " fill-opacity="1" fill-rule="nonzero"/><path fill="#ffffff" d="M 229.136719 151.023438 C 217.980469 146.34375 203.496094 144.082031 187.648438 144.082031 C 171.800781 144.082031 157.3125 146.34375 146.15625 151.023438 C 157.746094 146.820312 172.097656 144.789062 187.648438 144.789062 C 203.199219 144.789062 217.550781 146.820312 229.136719 151.023438 " fill-opacity="1" fill-rule="nonzero"/><path fill="#000000" d="M 163.082031 151.578125 C 159.253906 151.578125 156.136719 147.789062 156.136719 143.140625 C 156.136719 138.488281 159.253906 134.703125 163.082031 134.703125 C 166.914062 134.703125 170.03125 138.488281 170.03125 143.140625 C 170.03125 147.789062 166.914062 151.578125 163.082031 151.578125 " fill-opacity="1" fill-rule="nonzero"/><path fill="#ffffff" d="M 158.09375 142.734375 C 157.308594 142.527344 156.964844 141.253906 157.324219 139.898438 C 157.683594 138.542969 158.613281 137.609375 159.398438 137.816406 C 160.1875 138.023438 160.535156 139.296875 160.171875 140.652344 C 159.8125 142.007812 158.878906 142.941406 158.09375 142.734375 " fill-opacity="1" fill-rule="nonzero"/><path fill="#000000" d="M 212.214844 151.578125 C 208.382812 151.578125 205.261719 147.789062 205.261719 143.140625 C 205.261719 138.488281 208.382812 134.703125 212.214844 134.703125 C 216.042969 134.703125 219.164062 138.488281 219.164062 143.140625 C 219.164062 147.789062 216.042969 151.578125 212.214844 151.578125 " fill-opacity="1" fill-rule="nonzero"/><path fill="#ffffff" d="M 207.226562 142.734375 C 206.4375 142.527344 206.09375 141.253906 206.449219 139.898438 C 206.8125 138.542969 207.742188 137.609375 208.527344 137.816406 C 209.3125 138.023438 209.660156 139.296875 209.300781 140.652344 C 208.941406 142.007812 208.011719 142.941406 207.226562 142.734375 " fill-opacity="1" fill-rule="nonzero"/></svg>